<?xml version="1.0" encoding="UTF-8" standalone="no"?>
<svg id="avocad" width="97" height="163" xmlns="http://www.w3.org/2000/svg" viewBox="54.2 172 97 163"><path
     class="st1"
     d="m 76.933334,206.06232 c 1.8,-4.3 3.5,-8.7 5.7,-12.8 2.4,-4.6 5,-9 8.9,-12.6 3.5,-3.3 7.699996,-5.3 12.499996,-5.6 7,-0.5 13.4,1.3 19.3,5.1 4.1,2.6 6.1,6.5 6.5,11.4 -0.02,6.83898 -0.37705,13.1606 0.1,19.5 0.75422,5.50442 2.07837,11.19185 3.2,16.8 1.1,4 2.6,7.8 4.2,11.5 2.42148,5.18012 4.31912,9.85022 6.40929,14.5031 2,4.6 3.09381,9.2969 3.89381,14.2969 0.7,4.2 1.10619,8.4031 0.90619,12.6031 -0.2,6.8 -1.65155,13.34845 -4.05155,19.74845 -2.5,6.5 -5.8969,12.45155 -10.5969,17.55155 -4.3,4.7 -9.56084,8.60619 -15.36084,11.10619 -5.4,2.4 -10.84536,3.3969 -16.74536,3.1969 -8.299992,-0.2 -15.954636,-3.10619 -22.654636,-7.90619 -7.9,-5.6 -13.4,-13.1 -17.3,-22 -2.7,-6.2 -4.2,-12.6 -4.7,-19.3 -0.4,-5.3 0,-10.5 0.6,-15.8 0.4,-3.2 0.7,-6.3 1.4,-9.4 1.1,-5.1 2.5,-10.1 4.1,-15 2.1,-6.8 4.4,-13.5 6.9,-20.1"
     style="fill:#eeec90"/><path
     class="st2"
     d="m 77.533334,274.86232 c 0.1,-3.9 0.7,-7.7 1.8,-11.4 1.7,-6 4.5,-11.3 8.9,-15.7 3.8,-3.7 8.3,-6 13.699996,-6.1 4.4,-0.1 8.3,1.4 11.7,4 0.4,0.3 0.7,0.6 1.1,0.8 0.2,0.2 0.4,0.4 0.6,0.6 2.4,2.2 4.4,4.7 6,7.5 3.3,5.7 4.9,11.9 5.4,18.4 0.5,6.8 -0.3,13.5 -2.7,20 -1.9,5.1 -4.6,9.7 -8.7,13.3 -4.2,3.7 -8.9,5.7 -14.6,5.2 -1.8,-0.1 -3.499996,-0.7 -5.299996,-1.2 -2.5,-1.2 -4.8,-2.6 -6.9,-4.5 -2,-1.9 -3.7,-4.1 -5.2,-6.4 -2.8,-4.5 -4.7,-9.4 -5.3,-14.6 -0.1,-2.6 -0.5,-7.9 -0.5,-9.9 z"
     style="fill:#6c4e12"/><path
     class="st4"
     d="m 66.633334,224.86232 c 1.9,-5.4 4,-10.7 6.2,-15.9 1.4,-3.4 2.8,-6.9 4.3,-10.3 2.4,-5.5 5,-10.9 8.7,-15.7 4.3,-5.6 9.7,-9.4 16.799996,-10.5 8.47091,-1.07407 13.31423,0.86186 19.9,4 6,3.2 9.5,8.1 10,15.1 0.3,3.7 -0.1,7.4 -0.3,11.1 -0.2,2.5 0.1,5 0.3,7.5 0.3,3.5 0.7,6.9 1.5,10.3 1.2,5.5 2.8,10.9 5,16.1 2.30016,5.31154 3.92514,10.18422 6.3,14.9 3.1,6.8 4.9,13.9 5.5,21.4 0.7,8.5 -0.2,16.8 -2.7,24.9 -2.5,7.9 -6.4,15.1 -11.9,21.3 -4.3,4.9 -9.2,8.8 -15.1,11.7 -5.3,2.6 -10.9,4 -16.9,4.2 -7.099996,0.3 -13.799996,-1.2 -20.199996,-4.2 -0.9,-0.4 -1.8,-0.9 -2.7,-1.4 -2.4,-1.5 -4.8,-3.2 -7,-5.1 -5.7,-4.9 -10.2,-10.8 -13.5,-17.5 -3.2,-6.4 -5.2,-13.2 -6.1,-20.3 -0.8,-6.3 -0.7,-12.6 0.3,-18.9 0.4,-2.2 0.3,-4.4 0.8,-6.6 0.9,-4.8 2.1,-9.6 3.5,-14.3 1.3,-4.6 2.8,-9.1 4.3,-13.6 z m 3.6,-1.9 c -2.5,6.6 -4.7,13.3 -6.9,20.1 -1.6,4.9 -3,9.9 -4.1,15 -0.7,3.1 -1,6.3 -1.4,9.4 -0.6,5.3 -1,10.5 -0.6,15.8 0.5,6.7 2,13.1 4.7,19.3 3.8,8.9 9.4,16.3 17.3,22 6.7,4.8 14.2,7.5 22.499996,7.7 5.9,0.2 11.5,-1 16.9,-3.3 5.8,-2.5 10.7,-6.3 15,-10.9 4.7,-5.1 8.2,-11 10.7,-17.5 2.4,-6.4 3.7,-13 4,-19.8 0.2,-4.2 -0.1,-8.4 -0.7,-12.5 -0.8,-5 -2.1,-9.8 -4.1,-14.4 -2.46399,-4.67684 -4.17642,-9.94772 -6.1,-14.4 -1.6,-3.8 -3.1,-7.6 -4.2,-11.5 0,-0.4 -0.2,-0.7 -0.4,-1 -0.1,-1.3 -0.6,-2.5 -0.9,-3.7 -0.6,-2.9 -1.1,-5.8 -1.6,-8.7 0.1,-0.4 0.1,-0.7 -0.1,-1.1 -0.1,-0.8 -0.2,-1.5 -0.3,-2.3 -0.2,-2.7 -0.5,-5.4 -0.4,-8.1 0.2,-3.8 0.6,-7.6 0.3,-11.4 -0.3,-4.8 -2.4,-8.7 -6.5,-11.4 -5.8,-3.8 -12.3,-5.6 -19.3,-5.1 -4.8,0.4 -8.999996,2.4 -12.499996,5.6 -3.9,3.5 -6.5,8 -8.9,12.6 -2.2,4.2 -3.9,8.5 -5.7,12.8 -0.7,1.7 -1.5,3.3 -2,5.1 l -4.6,11.6"
     style="fill:#5a862a"/></svg>
